<svg width="279" height="165" viewBox="0 0 279 165" fill="none" xmlns="http://www.w3.org/2000/svg">
<rect width="276" height="276" transform="translate(1 -112)" fill="white"/>
<path d="M277 25.9058C277.012 53.4896 268.749 80.4429 253.28 103.281C237.81 126.119 215.844 143.792 190.222 154.015C162.302 165.162 131.504 166.878 102.518 158.902C73.5317 150.927 47.9472 133.696 29.661 109.836C17.653 94.1516 9.14479 76.0773 4.70898 56.8293C0.273171 37.5813 0.0127467 17.6065 3.94524 -1.75055L4.09147 -2.46075C8.68228 -24.2077 18.4533 -44.5259 32.575 -61.6902C46.6966 -78.8545 64.7519 -92.3581 85.2078 -101.054C99.1519 -106.94 113.977 -110.469 129.077 -111.499C132.482 -111.875 135.762 -112 139.083 -112C173.778 -112.043 207.211 -98.9908 232.699 -75.453C258.186 -51.9152 273.851 -19.6259 276.561 14.9602C276.854 18.5531 277 22.2294 277 25.9058Z" fill="#1C5D99" stroke="#826251" stroke-width="2.23849" stroke-miterlimit="10"/>
<path d="M276.561 14.9603L273.783 14.2501C270.879 13.519 268.936 -10.0432 265.824 -11.401C262.711 -12.7587 262.335 -24.2265 260.183 -24.2265C258.032 -24.2265 257.28 -21.511 254.752 -13.9076C252.224 -6.30417 254.752 -4.40332 254.752 -0.894058C254.752 2.6152 254.167 9.19508 252.036 6.85558C249.906 4.51607 240.568 -22.2838 236.87 -22.8478C233.173 -23.4118 229.893 -31.2032 227.177 -32.373C224.461 -33.5427 222.686 -31.7881 217.839 -31.7881C212.993 -31.7881 212.596 -35.6942 210.444 -35.4854C208.292 -35.2765 205.598 -36.6342 201.921 -37.0311C198.244 -37.428 195.215 -44.1123 192.876 -40.9164C190.536 -37.7204 195.633 -31.9552 200.292 -29.4068C204.95 -26.8584 206.559 -29.929 209.776 -28.9473C212.993 -27.9655 214.622 -22.5136 212.888 -17.6466C211.154 -12.7796 206.454 -10.2312 201.044 -7.89169C195.633 -5.55219 191.935 -3.714 190.786 -10.8787C189.638 -18.0435 174.618 -30.8063 172.863 -33.1459C171.108 -35.4854 171.066 -40.1226 168.685 -39.5377C165.447 -38.8484 163.483 -36.676 164.068 -35.7151C164.653 -34.7543 172.424 -20.9679 179.965 -16.08C186.024 -12.2156 188.133 -2.83668 190.64 0.44281C192.479 2.86588 197.304 1.84234 201.733 0.609917C202.29 0.453041 202.878 0.440018 203.442 0.572044C204.006 0.704071 204.527 0.976837 204.957 1.36488C205.387 1.75293 205.711 2.24358 205.9 2.79099C206.089 3.3384 206.136 3.92473 206.036 4.49517C202.945 19.8064 183.308 30.1044 181.219 38.3136C178.9 47.4419 184.331 58.5128 183.162 63.1918C181.992 67.8708 170.523 68.4139 169.562 72.9049C168.601 77.3959 176.331 80.8843 170.502 83.9758C167.16 85.7096 167.473 80.6545 165.677 86.8793C162.543 97.7831 147.816 103.005 142.551 104.342C137.287 105.679 133.255 103.778 134.592 100.164C135.929 96.5507 130.915 83.0567 124.69 78.5866C118.465 74.1165 118.423 68.1424 122.601 53.3324C126.779 38.5225 106.098 40.3398 111.153 27.8903C116.209 15.4407 106.871 16.4225 101.043 11.1795C95.2143 5.93648 79.5049 31.7128 61.9572 6.02003C44.4095 -19.6728 70.8982 -37.0938 74.9717 -39.8093C79.0453 -42.5248 86.4404 -52.0499 88.3832 -51.4859C90.326 -50.9219 102.735 -53.9925 107.184 -55.5592C111.634 -57.1258 119.029 -57.8778 120.199 -55.5592C121.369 -53.2406 115.352 -54.1805 118.632 -50.1073C121.912 -46.034 152.056 -43.3185 158.073 -43.8408C164.089 -44.363 165.468 -43.0679 167.766 -49.2926C170.064 -55.5174 157.467 -54.9116 153.999 -54.3477C150.531 -53.7837 150.51 -61.6586 145.643 -56.0605C143.554 -53.533 139.376 -58.9222 139.042 -63.0373C138.707 -67.1523 127.385 -72.2073 125.421 -69.0949C123.458 -65.9825 134.279 -64.2697 134.55 -62.8284C134.717 -62.139 132.608 -59.34 131.438 -57.1885C130.268 -55.037 129.892 -57.1885 130.101 -59.1311C130.31 -61.0737 124.544 -62.2644 122.434 -64.771C120.324 -67.2776 115.018 -68.6771 110.13 -67.0896C105.242 -65.5021 105.095 -64.8337 100.437 -59.9875C95.7783 -55.1414 87.0044 -56.4156 85.8137 -57.1885C84.623 -57.9614 87.0044 -63.455 87.5685 -66.6718C88.1325 -69.8887 94.1906 -67.8625 97.4704 -66.9016C100.75 -65.9408 100.583 -68.2594 100.019 -71.7477C99.4549 -75.2361 100.792 -76.8863 102.735 -77.2832C104.677 -77.6801 114.35 -78.9543 118.653 -83.4244C121.995 -86.871 127.406 -84.3853 130.122 -84.3853C132.837 -84.3853 141.528 -85.5341 142.927 -94.8295C143.282 -97.1481 143.909 -99.5085 140.065 -96.9184C137.227 -95.4601 135.009 -93.0276 133.819 -90.0669C132.649 -87.1634 123.165 -88.2705 119.739 -90.2132C116.313 -92.1558 120.721 -94.1402 130.477 -100.95C140.232 -107.759 153.999 -97.5032 157.404 -98.0046C160.809 -98.5059 170.502 -108.449 170.502 -108.449C198.987 -101.789 224.616 -86.2432 243.682 -64.0584C262.747 -41.8737 274.262 -14.2001 276.561 14.9603Z" fill="#91D670" stroke="#826251" stroke-width="2.23849" stroke-miterlimit="10"/>
<path d="M257.217 4.07636C256.846 6.26796 256.846 8.5064 257.217 10.698C257.614 11.826 259.306 10.1758 259.662 9.54914C260.017 8.92248 257.489 3.93014 257.217 4.07636Z" fill="#826251" stroke="#826251" stroke-width="2.23849" stroke-miterlimit="10"/>
<path d="M191.267 65.3634C191.06 65.4863 190.881 65.6526 190.744 65.8509C190.607 66.0492 190.515 66.2748 190.473 66.5122C190.16 68.7682 190.849 71.8806 189.888 73.5099C188.927 75.1392 185.564 82.1368 187.068 83.9541C188.572 85.7714 192.687 86.962 193.857 85.0194C195.027 83.0768 206.621 56.1516 202.589 56.1516C199.895 56.1516 202.172 59.3893 198.411 61.311C195.696 62.7105 192.583 64.5069 191.267 65.3634Z" fill="#826251" stroke="#826251" stroke-width="2.23849" stroke-miterlimit="10"/>
<path d="M29.6609 109.835C11.1547 85.772 1.13548 56.2602 1.16682 25.9049C1.16526 16.7875 2.06089 7.69198 3.84076 -1.25009C3.84076 -1.25009 3.94521 -1.25009 3.94521 -1.25009C3.94521 2.55161 4.27945 26.2182 9.56465 28.5369C15.2885 31.0226 25.6083 35.1585 26.2767 41.9473C26.9452 48.736 23.0179 57.551 24.1877 61.3527C25.3576 65.1544 27.1123 78.2932 26.2767 80.1523C25.4411 82.0114 22.2449 81.4892 23.7073 85.9175C25.1696 90.3459 29.9743 100.915 29.9743 103.714C30.0558 105.76 29.9509 107.808 29.6609 109.835Z" fill="#91D670" stroke="#826251" stroke-width="2.23849" stroke-miterlimit="10"/>
<path d="M190.223 154.014C164.853 164.1 137.068 166.462 110.36 160.802C112.543 158.622 115.343 157.164 118.381 156.625C123.27 155.873 146.708 155.873 150.845 155.142C154.981 154.41 166.951 150.776 170.105 152.217C172.894 153.894 176.136 154.66 179.381 154.41C182.786 154.014 189.074 154.473 190.223 154.014Z" fill="#826251" stroke="#826251" stroke-width="2.23849" stroke-miterlimit="10"/>
</svg>
