<svg width="46" height="40" viewBox="0 0 46 40" fill="none" xmlns="http://www.w3.org/2000/svg">
<path d="M31.3863 37.8557L31.3869 31.1603C31.3872 27.462 28.3892 24.4638 24.6909 24.4638H9.6967C5.99893 24.4638 3.00117 27.4612 3.00075 31.159L3 37.8557M42.9994 37.8561L43 31.1607C43.0003 27.4624 40.0024 24.4642 36.304 24.4642M30.0965 3.45938C31.7409 4.67946 32.8066 6.63541 32.8066 8.84027C32.8066 11.0451 31.7409 13.0011 30.0965 14.2211M24.0287 8.8399C24.0287 12.538 21.0309 15.5359 17.3328 15.5359C13.6347 15.5359 10.6368 12.538 10.6368 8.8399C10.6368 5.14183 13.6347 2.14395 17.3328 2.14395C21.0309 2.14395 24.0287 5.14183 24.0287 8.8399Z" stroke="black" stroke-width="4.16667" stroke-linecap="round" stroke-linejoin="round"/>
</svg>
