<svg width="41" height="42" viewBox="0 0 41 42" fill="none" xmlns="http://www.w3.org/2000/svg">
<g clip-path="url(#clip0_4_12)">
<path d="M9.75064 31.7496H5.50422C4.44267 31.6612 3.4531 31.1771 2.7318 30.3931C2.01049 29.6094 1.61014 28.583 1.61014 27.5178C1.61014 26.4526 2.01049 25.4262 2.7318 24.6424C3.4531 23.8585 4.44267 23.3744 5.50422 23.286H12.2399L16.5742 18.9517L4.68422 11.6303C3.76886 11.0644 3.10249 10.1721 2.8198 9.1338C2.53711 8.09545 2.65919 6.98851 3.16136 6.03672C3.38305 5.49201 3.71398 4.99849 4.13376 4.58664C4.55351 4.17477 5.05322 3.85327 5.60206 3.64197C6.15087 3.43067 6.73714 3.33406 7.32473 3.35809C7.91235 3.38213 8.48878 3.52629 9.0185 3.78172L24.5399 10.9567L32.0371 3.37171C32.8448 2.56394 33.9404 2.11014 35.0828 2.11014C36.2253 2.11014 37.3208 2.56394 38.1285 3.37171C38.9362 4.17948 39.3902 5.27506 39.3902 6.41744C39.3902 7.55979 38.9362 8.65536 38.1285 9.46315L30.5435 16.9603L37.7185 32.6282C37.9546 33.1498 38.0834 33.7138 38.0972 34.2863C38.1113 34.8586 38.0102 35.4282 37.7997 35.9609C37.5894 36.4933 37.2743 36.9783 36.8731 37.3868C36.4715 37.7954 35.9924 38.1193 35.4635 38.3389C34.5117 38.8411 33.4047 38.963 32.3666 38.6804C31.3281 38.3978 30.4358 37.7312 29.87 36.816L22.5485 24.926L18.2142 29.2603V35.996C18.1258 37.0576 17.6417 38.0472 16.8578 38.7685C16.074 39.4898 15.0477 39.8902 13.9824 39.8902C12.9172 39.8902 11.8909 39.4898 11.107 38.7685C10.3232 38.0472 9.83903 37.0576 9.75064 35.996V31.7496Z" stroke="#91D670" stroke-width="2.92857" stroke-linecap="round" stroke-linejoin="round"/>
</g>
<defs>
<clipPath id="clip0_4_12">
<rect width="41" height="41" fill="white" transform="translate(0 0.5)"/>
</clipPath>
</defs>
</svg>
