<svg width="39" height="40" viewBox="0 0 39 40" fill="none" xmlns="http://www.w3.org/2000/svg">
<g clip-path="url(#clip0_4_19)">
<path d="M19.5 38.1071C29.5004 38.1071 37.6071 30.0004 37.6071 20C37.6071 9.9997 29.5004 1.89285 19.5 1.89285C9.4997 1.89285 1.39285 9.9997 1.39285 20C1.39285 30.0004 9.4997 38.1071 19.5 38.1071Z" stroke="black" stroke-width="2.78571" stroke-linecap="round" stroke-linejoin="round"/>
<path d="M2.78572 26.9641H7.66072C8.95365 26.9641 10.1936 26.4505 11.1079 25.5363C12.0221 24.6221 12.5357 23.3821 12.5357 22.0891V17.9106C12.5357 16.6176 13.0493 15.3777 13.9636 14.4634C14.8778 13.5492 16.1178 13.0356 17.4107 13.0356C18.7037 13.0356 19.9436 12.5219 20.8579 11.6077C21.7721 10.6935 22.2857 9.45351 22.2857 8.16058V2.08771" stroke="black" stroke-width="2.78571" stroke-linecap="round" stroke-linejoin="round"/>
<path d="M37.6071 19.7214C36.2123 18.9977 34.6657 18.6158 33.0943 18.6071H27.1607C25.8678 18.6071 24.6278 19.1207 23.7136 20.035C22.7993 20.9492 22.2857 22.1892 22.2857 23.4821C22.2857 24.7751 22.7993 26.0151 23.7136 26.9293C24.6278 27.8435 25.8678 28.3571 27.1607 28.3571C28.0842 28.3571 28.97 28.724 29.623 29.377C30.276 30.03 30.6429 30.9158 30.6429 31.8393V34.2629" stroke="black" stroke-width="2.78571" stroke-linecap="round" stroke-linejoin="round"/>
</g>
<defs>
<clipPath id="clip0_4_19">
<rect width="39" height="39" fill="white" transform="translate(0 0.5)"/>
</clipPath>
</defs>
</svg>
